<svg width="1200" height="400" viewBox="0 0 1200 400" fill="none" xmlns="http://www.w3.org/2000/svg">
  <!-- Hexagon Icon -->
  <path d="M128 64L256 128V256L128 320L0 256V128L128 64Z" fill="#FF6B35"/>
  <path d="M128 100L200 136V232L128 268L56 232V136L128 100Z" fill="white"/>

  <!-- Chinese Takeout Box Icon - Centered -->
  <!-- Box body -->
  <path d="M110 160L100 215L128 225L156 215L146 160Z" fill="#FF6B35"/>
  <!-- Top flaps -->
  <path d="M110 160L100 150L128 145L156 150L146 160Z" fill="#FF6B35"/>
  <!-- Left fold -->
  <line x1="110" y1="160" x2="100" y2="215" stroke="white" stroke-width="1.5"/>
  <!-- Right fold -->
  <line x1="146" y1="160" x2="156" y2="215" stroke="white" stroke-width="1.5"/>
  <!-- Center seam -->
  <line x1="128" y1="145" x2="128" y2="225" stroke="white" stroke-width="1.5"/>

  <!-- Full Text -->
  <text x="300" y="170" font-family="Plus Jakarta Sans, sans-serif" font-size="90" font-weight="700" fill="#003D7A">Restaurant</text>
  <text x="300" y="250" font-family="Plus Jakarta Sans, sans-serif" font-size="90" font-weight="700" fill="#003D7A">Supplies</text>
  <text x="300" y="330" font-family="Plus Jakarta Sans, sans-serif" font-size="90" font-weight="700" fill="#003D7A">Direct</text>

  <!-- Tagline -->
  <text x="300" y="370" font-family="Inter, sans-serif" font-size="28" font-weight="400" fill="#64748B">Packaging, Disposables &amp; Supply</text>
</svg>
